<svg width="21" height="25" viewBox="0 0 21 25" fill="none" xmlns="http://www.w3.org/2000/svg">
<path fill-rule="evenodd" clip-rule="evenodd" d="M9.1875 0C9.22361 0 9.25938 0.00138868 9.29475 0.00411301L9.1875 0L9.25797 0.0018012L9.36573 0.0114402L9.47505 0.0301216L9.58286 0.0577513L9.64074 0.0768966L9.6253 0.0712301C9.69711 0.0954222 9.76606 0.125398 9.83151 0.160569L9.95341 0.234899L10.0249 0.287498L10.1156 0.366117L14.9809 4.99938L15.75 5C16.0981 5 16.4319 5.1317 16.6781 5.36612L20.6156 9.11612C20.8617 9.35054 21 9.66848 21 10V21.25C21 23.3211 19.2371 25 17.0625 25H9.1875C7.01288 25 5.25 23.3211 5.25 21.25V20H3.9375C1.76288 20 0 18.3211 0 16.25V3.75C0 1.67893 1.76288 0 3.9375 0H9.1875ZM15.0937 7.49937L9.1875 7.5C8.46262 7.5 7.875 8.05964 7.875 8.75V21.25C7.875 21.9404 8.46262 22.5 9.1875 22.5H17.0625C17.7874 22.5 18.375 21.9404 18.375 21.25V10.625H16.4062C15.6814 10.625 15.0937 10.0654 15.0937 9.375V7.49937ZM15.75 18.75C16.4749 18.75 17.0625 19.3096 17.0625 20C17.0625 20.6904 16.4749 21.25 15.75 21.25H10.5C9.77513 21.25 9.1875 20.6904 9.1875 20C9.1875 19.3096 9.77513 18.75 10.5 18.75H15.75ZM8.9175 2.5H3.9375C3.21263 2.5 2.625 3.05964 2.625 3.75V16.25C2.625 16.9404 3.21263 17.5 3.9375 17.5H5.25V8.76069C5.25 6.69605 7.00235 5.0198 9.1702 5.01073L11.8372 4.99957L9.37932 2.68096C9.25644 2.56503 9.09047 2.5 8.9175 2.5ZM15.75 15C16.4749 15 17.0625 15.5596 17.0625 16.25C17.0625 16.9404 16.4749 17.5 15.75 17.5H10.5C9.77513 17.5 9.1875 16.9404 9.1875 16.25C9.1875 15.5596 9.77513 15 10.5 15H15.75Z" fill="#023246"/>
</svg>
