<svg width="53" height="77" viewBox="0 0 53 77" fill="none" xmlns="http://www.w3.org/2000/svg">
<g clip-path="url(#clip0_1143_3772)">
<path d="M26.5 0C18.5199 0 12.0455 6.4668 12.0455 14.4375V38.5C12.0455 46.4707 18.5199 52.9375 26.5 52.9375C34.4801 52.9375 40.9545 46.4707 40.9545 38.5V14.4375C40.9545 6.4668 34.4801 0 26.5 0ZM7.22727 32.4844C7.22727 30.4842 5.61619 28.875 3.61364 28.875C1.61108 28.875 0 30.4842 0 32.4844V38.5C0 51.8998 9.96761 62.9686 22.8864 64.7281V69.7812H15.6591C13.6565 69.7812 12.0455 71.3904 12.0455 73.3906C12.0455 75.3908 13.6565 77 15.6591 77H26.5H37.3409C39.3435 77 40.9545 75.3908 40.9545 73.3906C40.9545 71.3904 39.3435 69.7812 37.3409 69.7812H30.1136V64.7281C43.0324 62.9686 53 51.8998 53 38.5V32.4844C53 30.4842 51.3889 28.875 49.3864 28.875C47.3838 28.875 45.7727 30.4842 45.7727 32.4844V38.5C45.7727 49.1326 37.1452 57.75 26.5 57.75C15.8548 57.75 7.22727 49.1326 7.22727 38.5V32.4844Z" fill="#023246"/>
</g>
<defs>
<clipPath id="clip0_1143_3772">
<rect width="53" height="77" fill="white"/>
</clipPath>
</defs>
</svg>
